<?xml version="1.0" standalone="no"?>
<!DOCTYPE svg PUBLIC "-//W3C//DTD SVG 20010904//EN"
 "http://www.w3.org/TR/2001/REC-SVG-20010904/DTD/svg10.dtd">
<svg version="1.0" xmlns="http://www.w3.org/2000/svg"
 width="1006.000000pt" height="1006.000000pt" viewBox="0 0 1006.000000 1006.000000"
 preserveAspectRatio="xMidYMid meet">
<metadata>
Created by potrace 1.11, written by Peter Selinger 2001-2013
</metadata>
<g transform="translate(0.000000,1006.000000) scale(0.100000,-0.100000)"
fill="#000000" stroke="none">
<path d="M4849 10045 c-2 -2 -33 -6 -69 -10 -36 -4 -74 -9 -85 -11 -11 -2 -33
-7 -50 -10 -358 -64 -757 -272 -1020 -531 -105 -104 -245 -271 -282 -338 -7
-12 -17 -16 -28 -11 -16 6 -61 13 -200 32 -137 18 -422 7 -565 -21 -14 -3 -38
-8 -55 -11 -49 -8 -145 -34 -215 -57 -36 -12 -67 -22 -70 -22 -3 -1 -22 -9
-44 -18 -21 -9 -40 -17 -42 -17 -2 0 -39 -17 -82 -37 -279 -133 -526 -330
-717 -568 -61 -77 -135 -182 -135 -192 0 -4 -6 -14 -14 -22 -8 -9 -33 -52 -56
-96 -221 -423 -287 -884 -194 -1367 2 -9 -2 -18 -10 -21 -23 -9 -188 -138
-245 -191 -159 -150 -257 -269 -378 -461 -29 -45 -105 -200 -137 -278 -55
-131 -102 -310 -131 -492 -4 -22 -8 -128 -10 -235 -5 -226 14 -386 68 -575 22
-75 41 -136 51 -160 7 -16 28 -66 47 -110 18 -44 46 -102 61 -128 15 -26 28
-50 28 -53 0 -3 25 -44 56 -92 106 -163 251 -330 389 -447 76 -64 178 -140
197 -148 15 -5 17 -14 12 -44 -3 -21 -8 -41 -10 -45 -12 -19 -30 -268 -28
-383 1 -101 11 -237 19 -265 2 -8 6 -31 9 -50 11 -68 17 -96 41 -185 13 -50
36 -122 50 -160 15 -39 31 -83 37 -99 33 -87 129 -258 212 -376 63 -88 81
-111 156 -194 341 -377 811 -610 1315 -653 184 -16 421 -4 563 28 24 5 45 8
46 7 1 -2 20 -28 41 -58 332 -469 816 -762 1396 -845 92 -13 463 -14 519 -2
14 4 56 11 95 17 319 50 697 229 951 448 83 71 205 194 246 247 12 17 31 39
41 50 10 11 37 48 60 83 33 49 46 61 62 57 24 -6 140 -24 208 -31 126 -14 386
-9 495 10 17 3 47 8 65 11 265 44 573 173 806 338 138 98 286 233 374 341 18
21 43 53 57 70 185 224 341 574 395 886 28 163 38 401 22 545 -15 134 -24 197
-33 220 -4 9 23 35 73 72 287 212 488 449 634 748 93 191 144 347 185 570 20
111 29 430 14 540 -17 128 -18 136 -35 215 -9 41 -18 82 -20 91 -14 69 -86
256 -139 364 -59 119 -173 302 -228 366 -13 15 -43 51 -68 80 -91 107 -219
223 -340 309 -41 30 -76 54 -76 54 -2 1 10 78 20 131 25 134 26 434 1 589 -22
140 -19 130 -50 243 -104 383 -325 733 -628 996 -68 59 -210 167 -220 167 -3
0 -25 13 -49 29 -218 146 -575 264 -868 288 -189 16 -458 2 -574 -28 -21 -6
-39 -9 -41 -7 -1 2 -20 28 -41 59 -140 202 -342 397 -559 539 -213 139 -546
266 -775 296 -19 2 -62 8 -95 13 -56 8 -399 14 -406 6z"/>
<path d="M3088 9663 c-67 -42 -56 -148 19 -180 91 -38 175 57 127 145 -28 53
-92 68 -146 35z"/>
<path d="M6862 9670 c-12 -5 -29 -25 -38 -44 -44 -91 42 -182 132 -140 127 60
37 236 -94 184z"/>
<path d="M444 7010 c-55 -22 -79 -93 -49 -149 28 -55 119 -66 162 -18 74 81
-12 208 -113 167z"/>
<path d="M9510 6990 c-17 -16 -30 -32 -31 -37 0 -4 -3 -20 -5 -34 -3 -16 4
-39 19 -60 72 -107 230 -15 176 104 -14 31 -45 49 -91 52 -30 2 -45 -3 -68
-25z"/>
<path d="M431 3236 c-56 -31 -67 -107 -23 -157 78 -87 221 7 167 110 -29 57
-90 77 -144 47z"/>
<path d="M9514 3225 c-97 -76 -2 -223 109 -170 18 8 38 27 45 42 48 104 -65
198 -154 128z"/>
<path d="M3095 573 c-90 -48 -49 -193 54 -193 30 0 46 7 68 29 86 85 -14 220
-122 164z"/>
<path d="M6874 575 c-107 -46 -72 -195 46 -195 43 0 91 46 95 90 7 83 -66 138
-141 105z"/>
</g>
</svg>
